# xmcd
#
# Track frame offsets:
#	150
#	14297
#	30417
#	49770
#	72232
#	76392
#	96565
#	115917
#	137867
#	140075
#	155127
#	172070
#	187972
#	211377
#	233500
#	254657
#	277215
#
# Disc length: 3903 seconds
#
# Revision: 1
# Processed by: cddbd v1.5.1PL0 Copyright (c) Steve Scherf et al.
# Submitted via: audiograbber 1.83.01
#
DISCID=010f3d11
DTITLE=Myrick FREEZE Guillory and Queen Ida - Nouveau Zydeco
DYEAR=2005
DGENRE=Country
TTITLE0=Bad Situation
TTITLE1=Jive Little Girl
TTITLE2=Moi Tit Feye O' Paradis
TTITLE3=One Nite Affari
TTITLE4=Queen Ida Introduction
TTITLE5=Five Lonely Years And A Nite
TTITLE6=Mazuka
TTITLE7=Tyrone
TTITLE8=Ida's Cook Book
TTITLE9=It's All Right
TTITLE10=La Bas
TTITLE11=Freeze Two Step
TTITLE12=Easy Girl
TTITLE13=Baby Please
TTITLE14=What Are You Going To Do
TTITLE15=Zydeco In D Minor
TTITLE16=Gator Man
EXTD=US Zydeco Music
EXTT0=
EXTT1=
EXTT2=
EXTT3=
EXTT4=
EXTT5=
EXTT6=
EXTT7=
EXTT8=
EXTT9=
EXTT10=
EXTT11=
EXTT12=
EXTT13=
EXTT14=
EXTT15=
EXTT16=
PLAYORDER=
